<?xml version="1.0" encoding="UTF-8"?>
<svg width="210px" height="100px" viewBox="0 0 210 100" version="1.1" xmlns="http://www.w3.org/2000/svg" xmlns:xlink="http://www.w3.org/1999/xlink">
    <title>DataDisplay / Empty / Shoppingcart</title>
    <g id="DataDisplay-/-Empty-/-Shoppingcart" stroke="none" stroke-width="1" fill="none" fill-rule="evenodd">
        <g id="Illustration-/-Gift" transform="translate(1.000000, 0.000000)">
            <path d="M42,96 L158,96 C159.104569,96 160,96.8954305 160,98 C160,99.1045695 159.104569,100 158,100 L42,100 C40.8954305,100 40,99.1045695 40,98 C40,96.8954305 40.8954305,96 42,96 Z" id="Rectangle-4" fill="#E3E3E3"></path>
            <g id="Icon" transform="translate(67.000000, 20.000000)" fill-rule="nonzero">
                <path d="M8.41843306,-0.956164144 L8.59486534,-0.910044604 L8.64473233,-0.893441311 C8.72463831,-0.866467027 8.80208791,-0.834520124 8.87685745,-0.798019516 L9.02395175,-0.718002097 L9.18372006,-0.612231219 L9.31730389,-0.504931503 L9.4335884,-0.395094933 L9.54436615,-0.271494454 L9.65006977,-0.13112759 L9.74015209,0.0134082397 L9.7778643,0.0830262863 C9.81880268,0.162213771 9.85462217,0.244555422 9.88486154,0.329567782 L9.92952764,0.473765188 L18.9295276,33.4737652 C19.2201591,34.5394139 18.5918835,35.6388962 17.5262348,35.9295276 C16.5090247,36.2069486 15.4609869,35.6471009 15.1150383,34.6687943 L15.0704724,34.5262348 L6.472,3 L0,3 C-1.1045695,3 -2,2.1045695 -2,1 C-2,-0.0543617951 -1.18412221,-0.918165122 -0.149262345,-0.994514264 L0,-1 L8,-1 L8.08672898,-0.998153341 L8.21328942,-0.989079487 L8.30868269,-0.976324301 C8.34534092,-0.970795371 8.38202902,-0.963982676 8.41843306,-0.956164144 Z" id="Line" fill="#CCCCCC"></path>
                <path d="M61,15 C62.1045695,15 63,15.8954305 63,17 C63,18.0543618 62.1841222,18.9181651 61.1492623,18.9945143 L61,19 L13,19 C11.8954305,19 11,18.1045695 11,17 C11,15.9456382 11.8158778,15.0818349 12.8507377,15.0054857 L13,15 L61,15 Z" id="Line-2" fill="#E3E3E3"></path>
                <path d="M59,25 C60.1045695,25 61,25.8954305 61,27 C61,28.0543618 60.1841222,28.9181651 59.1492623,28.9945143 L59,29 L15,29 C13.8954305,29 13,28.1045695 13,27 C13,25.9456382 13.8158778,25.0818349 14.8507377,25.0054857 L15,25 L59,25 Z" id="Line-2" fill="#E3E3E3"></path>
                <path d="M59.767604,6 L14.232396,6 C13.8113578,6 13.3918008,6.04985747 12.9824883,6.14853101 C10.1190011,6.83883597 8.35728874,9.71975378 9.0475937,12.583241 L14.1904508,33.9165744 C14.7679199,36.3120014 16.9112034,38 19.3752532,38 L54.6247468,38 C57.0887966,38 59.2320801,36.3120014 59.8095492,33.9165744 L64.9524063,12.583241 C65.0510798,12.1739286 65.1009373,11.7543715 65.1009373,11.3333333 C65.1009373,8.38781467 62.7131226,6 59.767604,6 Z M14.232396,10 L59.767604,10 C60.5039836,10 61.1009373,10.5969537 61.1009373,11.3333333 C61.1009373,11.4385929 61.0884729,11.5434821 61.0638046,11.6458103 L55.9209474,32.9791436 C55.7765802,33.5780004 55.2407593,34 54.6247468,34 L19.3752532,34 C18.7592407,34 18.2234198,33.5780004 18.0790526,32.9791436 L12.9361954,11.6458103 C12.7636192,10.9299384 13.2040473,10.209709 13.9199191,10.0371328 C14.0222472,10.0124644 14.1271365,10 14.232396,10 Z" id="Rectangle-10" fill="#CCCCCC"></path>
                <path d="M20,42 C15.581722,42 12,45.581722 12,50 C12,54.418278 15.581722,58 20,58 C24.418278,58 28,54.418278 28,50 C28,45.581722 24.418278,42 20,42 Z M20,46 C22.209139,46 24,47.790861 24,50 C24,52.209139 22.209139,54 20,54 C17.790861,54 16,52.209139 16,50 C16,47.790861 17.790861,46 20,46 Z" id="Oval-9" fill="#CCCCCC"></path>
                <path d="M54,42 C49.581722,42 46,45.581722 46,50 C46,54.418278 49.581722,58 54,58 C58.418278,58 62,54.418278 62,50 C62,45.581722 58.418278,42 54,42 Z M54,46 C56.209139,46 58,47.790861 58,50 C58,52.209139 56.209139,54 54,54 C51.790861,54 50,52.209139 50,50 C50,47.790861 51.790861,46 54,46 Z" id="Oval-9" fill="#CCCCCC"></path>
            </g>
            <path d="M184,28 C185.104569,28 186,28.8954305 186,30 L186,34 L190,34 C191.104569,34 192,34.8954305 192,36 C192,37.1045695 191.104569,38 190,38 L186,38 L186,42 C186,43.1045695 185.104569,44 184,44 C182.895431,44 182,43.1045695 182,42 L182,38 L178,38 C176.895431,38 176,37.1045695 176,36 C176,34.8954305 176.895431,34 178,34 L182,34 L182,30 C182,28.8954305 182.895431,28 184,28 Z" id="Rectangle-4" fill="#E3E3E3"></path>
            <path d="M54,0 C55.1045695,-2.02906125e-16 56,0.8954305 56,2 L56,4 L58,4 C59.1045695,4 60,4.8954305 60,6 C60,7.1045695 59.1045695,8 58,8 L56,8 L56,10 C56,11.1045695 55.1045695,12 54,12 C52.8954305,12 52,11.1045695 52,10 L52,8 L50,8 C48.8954305,8 48,7.1045695 48,6 C48,4.8954305 48.8954305,4 50,4 L52,4 L52,2 C52,0.8954305 52.8954305,2.02906125e-16 54,0 Z" id="Rectangle-4" fill="#E3E3E3"></path>
            <path d="M6,62 C1.581722,62 -2,65.581722 -2,70 C-2,74.418278 1.581722,78 6,78 C10.418278,78 14,74.418278 14,70 C14,65.581722 10.418278,62 6,62 Z M6,66 C8.209139,66 10,67.790861 10,70 C10,72.209139 8.209139,74 6,74 C3.790861,74 2,72.209139 2,70 C2,67.790861 3.790861,66 6,66 Z" id="Oval" fill="#E3E3E3" fill-rule="nonzero"></path>
            <circle id="Oval-2" fill="#E3E3E3" cx="204" cy="72" r="4"></circle>
        </g>
    </g>
</svg>