<svg id="图层_1" data-name="图层 1" xmlns="http://www.w3.org/2000/svg" viewBox="0 0 200 200"><title>人物插画01</title><path d="M50,66.11l8.06-.83,1.67-13.33h80.83l1.67,12.78,8.61,1.94,4.44-50s3.33-6.39-2.5-10.28-8.89-3.33-8.89-3.33H53.33s-3.61,0-7.22,4.44-1.67,8.33-1.67,8.33Z" style="fill:#5bf499"/><path d="M58.89,51.67h79.72s1.39,13.89,2.5,14.17,16.39,2.5,16.67,15-13.33,12.78-13.33,12.78l-1.67,18.61s.56,11.11-7.22,16.94a37.93,37.93,0,0,1-15.83,6.94H78.61S65,133.89,61.39,126.67a121.73,121.73,0,0,1-6.11-15l.83-17.78S40.56,90.28,41.67,79.44,56.94,67.78,56.94,67.78Z" style="fill:#ffece3"/><path d="M86.67,136h26l5.83,18.13,16,2.5v9.17s-11.88,5.83-34.38,6.88-38.12-14.17-38.12-14.17l20.62-3.75Z" style="fill:#ffece3"/><path d="M45.28,163.89c-8.33,9.72-10,32.78-10,32.78H163.61s1.94-20.28-9.17-31.11c-5.48-5.34-13.65-7.58-20.54-8.47,0,0-11.82,10.83-31.82,10.83-23.54,0-37.29-10.21-37.29-10.21A19.1,19.1,0,0,0,45.28,163.89Z" style="fill:#6c9dff"/><circle cx="133.89" cy="102.78" r="9.17" style="fill:#ec7094"/><circle cx="66.11" cy="102.78" r="9.17" style="fill:#ec7094"/><path d="M77.28,68.75a9.05,9.05,0,0,1,5.38-1.44,9.18,9.18,0,0,1,5.41,1.44,2.5,2.5,0,0,0,3.18-3.86,13.74,13.74,0,0,0-8.58-2.58c-5.34,0-8.26,2.32-8.57,2.59a2.48,2.48,0,0,0-.31,3.47A2.52,2.52,0,0,0,77.28,68.75Z" style="fill:#4c4497"/><path d="M111.94,68.75a9.06,9.06,0,0,1,5.38-1.44,9.18,9.18,0,0,1,5.4,1.44,2.5,2.5,0,0,0,3.18-3.86,13.73,13.73,0,0,0-8.58-2.58c-5.34,0-8.26,2.32-8.57,2.59a2.48,2.48,0,0,0-.32,3.48A2.53,2.53,0,0,0,111.94,68.75Z" style="fill:#4c4497"/><path d="M88.58,82.1a1.67,1.67,0,0,0,2.12-2.57,13.07,13.07,0,0,0-8.05-2.39,13,13,0,0,0-8,2.39,1.67,1.67,0,0,0,2.14,2.56,9.76,9.76,0,0,1,5.9-1.62A9.87,9.87,0,0,1,88.58,82.1Z" style="fill:#4c4497"/><path d="M117.32,77.14a13,13,0,0,0-8,2.39,1.67,1.67,0,0,0,2.13,2.56,11.59,11.59,0,0,1,11.83,0,1.67,1.67,0,0,0,2.13-2.57A13.07,13.07,0,0,0,117.32,77.14Z" style="fill:#4c4497"/><path d="M166.05,180.84a30.53,30.53,0,0,0-27.23-26.53l-15.18-1.57a5.35,5.35,0,0,1-4.7-4.32L117,140h.39a29.15,29.15,0,0,0,29.13-30.29L146,97.05a17.11,17.11,0,0,0,8.27-30.63L159,14A12.81,12.81,0,0,0,146.29,0H53.71A12.81,12.81,0,0,0,41,14l4.79,52.44A17.11,17.11,0,0,0,54,97.05l-.49,12.66A29.15,29.15,0,0,0,82.64,140H83l-2,8.51a5.32,5.32,0,0,1-4.68,4.23l-15.18,1.57a30.53,30.53,0,0,0-27.22,26.53l-2,15.39A3.33,3.33,0,0,0,34.82,200l.43,0a3.33,3.33,0,0,0,3.3-2.9l2-15.39a23.89,23.89,0,0,1,21.3-20.76l3.8-.39c9.33,5.61,21.58,8.78,34.35,8.78,2.33,0,4.66-.1,6.93-.31a1.67,1.67,0,0,0,1.51-1.81,1.69,1.69,0,0,0-1.81-1.51c-2.17.2-4.4.29-6.63.29a66.84,66.84,0,0,1-28.45-6.06l5.49-.57A11.94,11.94,0,0,0,87.54,150l2.34-10h20.23l2.32,9.86A12,12,0,0,0,123,159.38l5.45.56a55.65,55.65,0,0,1-5.4,2.26,1.67,1.67,0,0,0,.56,3.24,1.65,1.65,0,0,0,.56-.09,56.26,56.26,0,0,0,10.23-4.79l3.79.39a23.89,23.89,0,0,1,21.31,20.76l2,15.39a3.33,3.33,0,0,0,3.3,2.9l.43,0a3.33,3.33,0,0,0,2.87-3.73ZM145.73,90.41l-.46-11.72,3.07,1.67a1.67,1.67,0,0,0,1.6-2.93l-4.81-2.63-.2-5.23a10.53,10.53,0,0,1,.81,20.83ZM45.62,80a10.55,10.55,0,0,1,9.46-10.46l-.2,5.23-4.81,2.63a1.67,1.67,0,1,0,1.6,2.93l3.07-1.67-.46,11.72A10.57,10.57,0,0,1,45.62,80ZM55.8,50.89l-.47,12a17.14,17.14,0,0,0-3.18.44l-4.56-50a6.14,6.14,0,0,1,6.12-6.7h92.57a6.14,6.14,0,0,1,6.12,6.7l-4.56,50a17.16,17.16,0,0,0-3.18-.44l-.47-12a3.33,3.33,0,0,0-3.33-3.2h-5.69L136.78,33a1.67,1.67,0,0,0-3.31-.36l-1.65,15h-6.61l2-18.75a1.67,1.67,0,0,0-3.31-.35l-2,19.1H115.7l.79-9A1.67,1.67,0,0,0,115,36.88a1.69,1.69,0,0,0-1.81,1.51l-.82,9.29H59.13A3.33,3.33,0,0,0,55.8,50.89Zm10.63,75.55A22.31,22.31,0,0,1,60.18,110l2.16-55.62h75.32L139.82,110a22.49,22.49,0,0,1-22.47,23.36H82.64A22.3,22.3,0,0,1,66.44,126.44Z" style="fill:#4c4497"/><path d="M116.69,164.07c-.73.18-1.47.34-2.21.49a1.67,1.67,0,0,0,.66,3.27c.78-.16,1.56-.34,2.32-.52a1.67,1.67,0,1,0-.77-3.24Z" style="fill:#4c4497"/><path d="M117.5,96.35A1.67,1.67,0,0,0,115.83,98c0,6.92-7.1,12.54-15.83,12.54S84.17,104.93,84.17,98a1.67,1.67,0,1,0-3.33,0c0,8.75,8.6,15.88,19.17,15.88s19.17-7.12,19.17-15.88A1.67,1.67,0,0,0,117.5,96.35Z" style="fill:#4c4497"/><path d="M126,24.55h.18a1.67,1.67,0,0,0,1.65-1.49l.33-3.1a1.67,1.67,0,0,0-3.31-.35l-.33,3.1A1.66,1.66,0,0,0,126,24.55Z" style="fill:#4c4497"/></svg>