<svg id="图层_1" data-name="图层 1" xmlns="http://www.w3.org/2000/svg" viewBox="0 0 200 200"><title>人物插画01</title><path d="M49.93,69.54l7.79-1.95,1.95-13.07s17.8-.28,27.54-2.78,21.42-6.4,21.42-6.4,10.57,7,17.52,7.79,14.46,2.5,14.46,2.5L142.28,67,149.51,69l3.89-23.09,8.9-10.29S156.47,17.81,142,12.52a51.65,51.65,0,0,0-28.09-1.67S90.14-1.48,70.24,6.4C43.53,17,38.53,39.22,38.53,39.22l7,5.29Z" style="fill:#6c9dff"/><path d="M58.33,55.64,108.07,47l32.54,8.62s-.56,9.74.56,10,16.41,2.5,16.69,15-13.35,12.8-13.35,12.8l-1.67,18.64s.56,11.13-7.23,17a38,38,0,0,1-15.86,7H78.58S65,133.8,61.34,126.57a121.9,121.9,0,0,1-6.12-15l.83-17.8S40.47,90.13,41.59,79.28,56.89,67.6,56.89,67.6Z" style="fill:#ffece3"/><path d="M86.65,136h26.08l5.84,18.15,16.06,2.5v9.18s-11.89,5.84-34.42,6.88S62,158.48,62,158.48l20.65-3.76Z" style="fill:#ffece3"/><path d="M45.2,163.84c-8.34,9.74-10,32.82-10,32.82H163.7s1.95-20.31-9.18-31.15C149,160.16,140.85,157.92,134,157c0,0-11.84,10.85-31.87,10.85-23.57,0-37.34-10.22-37.34-10.22A19.13,19.13,0,0,0,45.2,163.84Z" style="fill:#ff9fc2"/><circle cx="133.94" cy="102.64" r="9.18" style="fill:#ec7094"/><circle cx="66.06" cy="102.64" r="9.18" style="fill:#ec7094"/><path d="M88,69.57a2.5,2.5,0,0,0,3.18-3.87,13.77,13.77,0,0,0-8.6-2.58c-5.35,0-8.27,2.33-8.58,2.59a2.49,2.49,0,0,0-.31,3.48,2.52,2.52,0,0,0,3.51.38,9.07,9.07,0,0,1,5.39-1.44A9.21,9.21,0,0,1,88,69.57Z" style="fill:#4c4497"/><path d="M112,69.57a9.08,9.08,0,0,1,5.39-1.44,9.21,9.21,0,0,1,5.41,1.44,2.5,2.5,0,0,0,3.18-3.87,13.77,13.77,0,0,0-8.59-2.58c-5.35,0-8.27,2.33-8.58,2.59a2.49,2.49,0,0,0-.32,3.48A2.53,2.53,0,0,0,112,69.57Z" style="fill:#4c4497"/><path d="M166.15,180.82a30.57,30.57,0,0,0-27.26-26.57l-15.2-1.57a5.36,5.36,0,0,1-4.71-4.33l-2-8.43h.39a29.19,29.19,0,0,0,29.17-30.34l-.43-10.34a17.16,17.16,0,0,0,7.87-31l3.39-22.1,5.58-5.5a3.34,3.34,0,0,0,1-2.24c0-.62.45-15.36-15.68-26C135.41,4,119.3,5.31,115,5.88,110,3.62,88.06-5.2,65,4.35c-24.11,10-30,33.47-30.23,34.46a3.34,3.34,0,0,0,1,3.26l7.42,6.68,2.46,19.8a17.14,17.14,0,0,0,8.19,30.69l-.43,10.35a29.19,29.19,0,0,0,29.17,30.33H83l-2,8.52a5.33,5.33,0,0,1-4.68,4.23l-15.2,1.57a30.57,30.57,0,0,0-27.26,26.57l-2,15.42A3.33,3.33,0,0,0,34.73,200l.43,0a3.34,3.34,0,0,0,3.31-2.91l2-15.42A23.92,23.92,0,0,1,61.8,160.89l3.8-.39c9.35,5.62,21.61,8.79,34.39,8.79,2.33,0,4.66-.1,6.94-.31a1.67,1.67,0,0,0,1.51-1.81,1.69,1.69,0,0,0-1.81-1.51c-2.17.2-4.4.29-6.64.29a66.93,66.93,0,0,1-28.49-6.07l5.49-.57a12,12,0,0,0,10.52-9.44l2.35-10h20.26l2.33,9.87A12,12,0,0,0,123,159.32l5.45.56a55.73,55.73,0,0,1-5.41,2.26,1.67,1.67,0,0,0,.56,3.24,1.66,1.66,0,0,0,.56-.09,56.34,56.34,0,0,0,10.24-4.8l3.8.39a23.92,23.92,0,0,1,21.33,20.79l2,15.42a3.34,3.34,0,0,0,3.31,2.91l.43,0a3.33,3.33,0,0,0,2.88-3.74ZM145.84,92.59l-.49-11.73,3.06,1.67a1.67,1.67,0,0,0,1.6-2.93L145.19,77,145,71.73a10.55,10.55,0,0,1,.87,20.86ZM45.54,82.21A10.56,10.56,0,0,1,55,71.73L54.81,77,50,79.61a1.67,1.67,0,1,0,1.6,2.93l3.06-1.67-.49,11.73A10.59,10.59,0,0,1,45.54,82.21Zm10.2-27.52L55.31,65a17.15,17.15,0,0,0-3.27.46l-2.33-18.8a3.34,3.34,0,0,0-1.08-2.07l-6.76-6.09c1.84-5.34,8.49-20.87,25.73-28,20.71-8.59,41.11-.14,44.72,1.5l-.63,4a1.67,1.67,0,0,0,1.38,1.91l.27,0A1.66,1.66,0,0,0,115,16.5l.64-4c3.05-.41,17.78-1.92,29,5.48,10.55,7,12.34,15.77,12.63,19l-5.32,5.25a3.33,3.33,0,0,0-1,1.87L147.67,65.4a17.26,17.26,0,0,0-3-.37l-.43-10.35a3.35,3.35,0,0,0-3.58-3.19c-.07,0-6.44.41-16.17-2.4-9.57-2.77-13.69-6.13-13.71-6.15l-.08,0,2.92-18.12a1.67,1.67,0,1,0-3.29-.53l-2.93,18.17a3.26,3.26,0,0,0-.43.16c-.07,0-6.6,3.62-21.58,6.45a129.66,129.66,0,0,1-26.19,2.47A3.26,3.26,0,0,0,55.74,54.68Zm10.65,71.65a22.33,22.33,0,0,1-6.27-16.47l2.16-51.68a146,146,0,0,0,24.36-2.6c11.61-2.19,18.54-4.84,21.66-6.24a54.63,54.63,0,0,0,14.34,6.16,66,66,0,0,0,15.08,2.64l2.16,51.7a22.52,22.52,0,0,1-22.5,23.39H82.62A22.33,22.33,0,0,1,66.39,126.33Z" style="fill:#4c4497"/><path d="M116.71,164c-.73.18-1.47.34-2.22.49a1.67,1.67,0,0,0,.66,3.27c.79-.16,1.56-.34,2.33-.52a1.67,1.67,0,0,0-.78-3.25Z" style="fill:#4c4497"/><path d="M111.68,99.58a1.67,1.67,0,0,0-1.67,1.67c0,4.31-4.49,7.81-10,7.81s-10-3.5-10-7.81a1.67,1.67,0,0,0-3.34,0c0,6.15,6,11.15,13.35,11.15s13.35-5,13.35-11.15A1.67,1.67,0,0,0,111.68,99.58Z" style="fill:#4c4497"/><path d="M124.34,84.77a1.67,1.67,0,0,0,1.07-3,14.75,14.75,0,0,0-16.1,0,1.67,1.67,0,0,0,2.13,2.57,9.8,9.8,0,0,1,5.91-1.62,9.9,9.9,0,0,1,5.93,1.62A1.67,1.67,0,0,0,124.34,84.77Z" style="fill:#4c4497"/><circle cx="84.26" cy="82.1" r="6.64" style="fill:#4c4497"/></svg>