<svg id="图层_1" data-name="图层 1" xmlns="http://www.w3.org/2000/svg" viewBox="0 0 200 200"><title>人物插画01</title><path d="M44.44,67.5S35.28,31.11,65.83,12.22s70.83-9.44,82.22,11.11,7.78,45,7.78,45l-12.22-1.11L142.5,56.39s-10.83-.28-24.17-7.22l-12.57-6.55a53.85,53.85,0,0,1-21,9.6C71.94,55,56.67,56.67,56.67,56.67L56.11,65Z" style="fill:#ff9fc2"/><path d="M86.67,136h26l5.83,18.13,16,2.5v9.17s-11.88,5.83-34.38,6.88-38.12-14.17-38.12-14.17l20.62-3.75Z" style="fill:#ffece3"/><circle cx="138.96" cy="122.5" r="12.08" style="fill:#ff9fc2"/><polygon points="159.38 145.42 165.21 139.58 186.67 152.92 171.67 165.42 159.38 145.42" style="fill:#ff9fc2"/><circle cx="155.08" cy="137.21" r="9.67" style="fill:#ff9fc2"/><circle cx="60.63" cy="122.5" r="12.08" style="fill:#ff9fc2"/><polygon points="40.21 145.42 34.38 139.58 12.92 152.92 27.92 165.42 40.21 145.42" style="fill:#ff9fc2"/><circle cx="44.5" cy="137.21" r="9.67" style="fill:#ff9fc2"/><path d="M45.28,163.89c-8.33,9.72-10,32.78-10,32.78H163.61s1.94-20.28-9.17-31.11c-5.48-5.34-13.65-7.58-20.54-8.47,0,0-11.82,10.83-31.82,10.83-23.54,0-37.29-10.21-37.29-10.21A19.1,19.1,0,0,0,45.28,163.89Z" style="fill:#fff385"/><path d="M148.19,69a11.12,11.12,0,0,0-3.19.52V53.33l-18.89-3.06-20-7.91L80.83,50.83l-23.75,2.5-.16,16.14a11.24,11.24,0,1,0-.2,20.34l-.06,6s4.58,41.67,44.58,41.67c31.67,0,43.75-39.17,43.75-39.17V91a11.12,11.12,0,0,0,3.19.52,11.25,11.25,0,0,0,0-22.5Z" style="fill:#ffece3"/><path d="M100,100c6.94,0,16.39-3.06,18.06.83s-6.11,12.5-17.78,12.5-23.14-9.54-18.06-14.17C85.28,96.39,100,100,100,100Z" style="fill:#ec7094"/><circle cx="133.89" cy="102.78" r="9.17" style="fill:#ec7094"/><circle cx="66.11" cy="102.78" r="9.17" style="fill:#ec7094"/><path d="M77.28,68.75a9.05,9.05,0,0,1,5.38-1.44,9.18,9.18,0,0,1,5.41,1.44,2.5,2.5,0,0,0,3.18-3.86,13.74,13.74,0,0,0-8.58-2.58c-5.34,0-8.26,2.32-8.57,2.59a2.48,2.48,0,0,0-.31,3.47A2.52,2.52,0,0,0,77.28,68.75Z" style="fill:#4c4497"/><path d="M117.32,62.31c-5.34,0-8.26,2.32-8.57,2.59a2.48,2.48,0,0,0-.32,3.48,2.53,2.53,0,0,0,3.5.38,9.06,9.06,0,0,1,5.38-1.44,9.18,9.18,0,0,1,5.4,1.44,2.5,2.5,0,0,0,3.18-3.86A13.73,13.73,0,0,0,117.32,62.31Z" style="fill:#4c4497"/><path d="M88.58,82.1a1.67,1.67,0,0,0,2.12-2.57,13.07,13.07,0,0,0-8.05-2.39,13,13,0,0,0-8,2.39,1.67,1.67,0,0,0,2.14,2.56,9.76,9.76,0,0,1,5.9-1.62A9.87,9.87,0,0,1,88.58,82.1Z" style="fill:#4c4497"/><path d="M117.32,77.14a13,13,0,0,0-8,2.39,1.67,1.67,0,0,0,2.13,2.56,11.59,11.59,0,0,1,11.83,0,1.67,1.67,0,0,0,2.13-2.57A13.07,13.07,0,0,0,117.32,77.14Z" style="fill:#4c4497"/><path d="M116.69,164.07c-.73.18-1.47.34-2.21.49a1.67,1.67,0,0,0,.66,3.27c.78-.16,1.56-.34,2.32-.52a1.67,1.67,0,1,0-.77-3.24Z" style="fill:#4c4497"/><path d="M117.67,97.8c-1.9-1-4.91-.52-8.1,0-.9.16-1.81.31-2.68.43a56.38,56.38,0,0,1-6.76.51,56.75,56.75,0,0,1-6.76-.5c-.87-.12-1.78-.27-2.68-.43-3.19-.54-6.19-1.06-8.1,0A5.2,5.2,0,0,0,79.94,104c1.33,5.25,9.24,10.7,20.19,10.72h.1c10.89,0,18.76-5.47,20.09-10.71A5.2,5.2,0,0,0,117.67,97.8Zm-.57,5.33c-.84,3.29-6.77,8.16-16.89,8.2h-.1c-10.14,0-16.1-4.9-16.94-8.2a1.9,1.9,0,0,1,1-2.4,2.8,2.8,0,0,1,1.24-.2,32,32,0,0,1,4.69.59c.94.16,1.89.32,2.8.45a60.41,60.41,0,0,0,7.2.53,60,60,0,0,0,7.2-.54c.91-.12,1.86-.28,2.8-.44,2.13-.37,5-.87,5.94-.38A1.9,1.9,0,0,1,117.09,103.13Z" style="fill:#4c4497"/><path d="M190.56,151.43a3.32,3.32,0,0,0-1.71-2.48l-20.29-11.1a12.78,12.78,0,0,0-13.82-14.19,14.64,14.64,0,0,0-10-15.22,47.05,47.05,0,0,0,2.59-11.32,17.09,17.09,0,0,0,11.24-28.61,65.3,65.3,0,0,0,1.74-14.71C160.28,22.12,135.49,0,100,0S39.72,22.12,39.72,53.8a65.43,65.43,0,0,0,1.74,14.71A17.09,17.09,0,0,0,52.7,97.12a47.05,47.05,0,0,0,2.59,11.32,14.64,14.64,0,0,0-10,15.22,13,13,0,0,0-3,.09,12.86,12.86,0,0,0-10.82,14.1l-20.29,11.1a3.33,3.33,0,0,0-.71,5.33l16.89,16.18a3.34,3.34,0,0,0,2.31.93,3.44,3.44,0,0,0,.55,0,3.33,3.33,0,0,0,2.42-1.76L43,149.38c.42,0,.83.11,1.25.11a13.26,13.26,0,0,0,2-.16A13,13,0,0,0,57.2,137.08a14.7,14.7,0,0,0,2.77.29,15.39,15.39,0,0,0,2.34-.18A14.76,14.76,0,0,0,72.22,131a47.4,47.4,0,0,0,11.21,6L81,148.51a5.32,5.32,0,0,1-4.68,4.23l-15.18,1.57a30.53,30.53,0,0,0-27.22,26.53l-2,15.39A3.33,3.33,0,0,0,34.82,200l.43,0a3.33,3.33,0,0,0,3.3-2.9l2-15.39a23.89,23.89,0,0,1,21.3-20.76l3.8-.39c9.33,5.61,21.58,8.78,34.35,8.78,2.33,0,4.66-.1,6.93-.31a1.67,1.67,0,0,0,1.51-1.81,1.69,1.69,0,0,0-1.81-1.51c-2.17.2-4.4.29-6.63.29a66.84,66.84,0,0,1-28.45-6.06l5.49-.57a12,12,0,0,0,10.52-9.51l2.28-11a46.64,46.64,0,0,0,20.32,0l2.28,11A12,12,0,0,0,123,159.38l5.45.56a55.65,55.65,0,0,1-5.4,2.26,1.67,1.67,0,0,0,.56,3.24,1.65,1.65,0,0,0,.56-.09,56.26,56.26,0,0,0,10.23-4.79l3.79.39a23.89,23.89,0,0,1,21.31,20.76l2,15.39a3.33,3.33,0,0,0,3.3,2.9l.43,0a3.33,3.33,0,0,0,2.87-3.73l-2-15.39a30.53,30.53,0,0,0-27.23-26.53l-15.18-1.57a5.32,5.32,0,0,1-4.68-4.23L116.57,137a47.4,47.4,0,0,0,11.21-6,14.76,14.76,0,0,0,9.91,6.23,15.35,15.35,0,0,0,2.34.18,14.7,14.7,0,0,0,2.77-.29,13,13,0,0,0,10.92,12.26,13.27,13.27,0,0,0,2,.16c.42,0,.83-.07,1.25-.11l10.42,20.2a3.33,3.33,0,0,0,2.42,1.76,3.44,3.44,0,0,0,.55,0,3.34,3.34,0,0,0,2.31-.93l16.89-16.18A3.33,3.33,0,0,0,190.56,151.43Zm-43-61v-12l3.48,1.9a1.67,1.67,0,1,0,1.6-2.93l-5.08-2.77v-5a10.53,10.53,0,0,1,0,20.79ZM100,6.67c2.48,0,4.88.16,7.24.4a1.66,1.66,0,0,0-.57,1.16l-.48,6.88a1.67,1.67,0,0,0,1.55,1.78h.12a1.67,1.67,0,0,0,1.66-1.55L110,8.45a1.65,1.65,0,0,0-.34-1.1c26.3,3.56,44,21.63,44,46.45a57.92,57.92,0,0,1-1,10.42A17.13,17.13,0,0,0,147.53,63V55a3.34,3.34,0,0,0-3.15-3.33c-.07,0-7.39-.45-18.7-4.38s-17.39-9-17.44-9.09a3.17,3.17,0,0,0-.3-.17l1.17-16.89a1.67,1.67,0,0,0-3.33-.23l-1.17,16.9a3.23,3.23,0,0,0-.61.33c-.07.06-7.57,5.93-20.37,9.74-12.47,3.71-26.47,3.8-27.71,3.8H55.8A3.33,3.33,0,0,0,52.47,55v8a17.13,17.13,0,0,0-5.11,1.25,58,58,0,0,1-1-10.42C46.39,26,68.43,6.67,100,6.67ZM43.62,80a10.56,10.56,0,0,1,8.85-10.4v5l-5.08,2.77A1.67,1.67,0,1,0,49,80.36l3.48-1.9v12A10.56,10.56,0,0,1,43.62,80ZM28.71,162.56l-10.38-9.95,15.5-8.48a12.94,12.94,0,0,0,2.9,2.87Zm16.53-19.81a6.29,6.29,0,0,1-7.18-5.23,6.28,6.28,0,0,1,5.23-7.18,6,6,0,0,1,1-.08,6.23,6.23,0,0,1,3.68,1.2,6.32,6.32,0,0,1,.79.71c.15.17.28.35.43.51a6.22,6.22,0,0,1,1.28,2.88A6.29,6.29,0,0,1,45.24,142.75Zm16-12.15a8.15,8.15,0,0,1-6.1-1.47,8.26,8.26,0,0,1-1.08-1c-.15-.17-.28-.35-.44-.52a8.11,8.11,0,0,1,4.3-13,47.75,47.75,0,0,0,9.06,12A8.1,8.1,0,0,1,61.28,130.6ZM59.13,92.47V58.29a112.19,112.19,0,0,0,26.4-4A76.81,76.81,0,0,0,106,44.89a71.94,71.94,0,0,0,17.46,8.72A94.54,94.54,0,0,0,140.87,58V92.47a40.87,40.87,0,0,1-81.73,0Zm79.59,38.13a8.1,8.1,0,0,1-5.76-4,47.75,47.75,0,0,0,9.06-12,8.12,8.12,0,0,1,4.3,13c-.16.16-.29.35-.44.52a8,8,0,0,1-7.17,2.43Zm16,12.15a6.29,6.29,0,0,1-5.23-7.18,6.22,6.22,0,0,1,1.28-2.88c.15-.16.28-.34.43-.51a6.32,6.32,0,0,1,.79-.71,6.23,6.23,0,0,1,3.68-1.2,6.38,6.38,0,0,1,1,.08,6.28,6.28,0,0,1,5.23,7.18A6.29,6.29,0,0,1,154.76,142.75Zm16.53,19.81-8-15.56a12.94,12.94,0,0,0,2.9-2.87l15.5,8.48Z" style="fill:#4c4497"/></svg>